# xmcd
#
# Track frame offsets: 
#        150
#        9140
#        17181
#        25815
#        34454
#        41232
#        49726
#        58672
#        67567
#        76168
#        85615
#        95161
#        103320
#        111400
#        120156
#        128452
#        137233
#        145591
#        154398
#        162222
#        171201
#        179811
#        188581
#        196717
#        205146
#        213112
#        222263
#
# Disc length: 3129 seconds
#
# Revision: 2
# Processed by: cddbd v1.5.2PL0 Copyright (c) Steve Scherf et al.
# Submitted via: ExactAudioCopy v0.95b4
#
DISCID=6f0c371b
DTITLE=Leon McAuliffe and His Cimarron Boys - Take It Away the Leon Way!
DYEAR=2001
DGENRE=Western Swing
TTITLE0=Leon's Boogie
TTITLE1=Boil 'Em Cabbage Down
TTITLE2=Mississippi Delta Blues [vocal: Leon McAuliffe]
TTITLE3=Fiddle Boogie
TTITLE4=Texas Drummer Boy
TTITLE5=This Is the Southland
TTITLE6=In the Mood
TTITLE7=Tulsa Straight Ahead [vocal: Jim Hall]
TTITLE8=Goin' Home
TTITLE9=Sizzlin' Cecil
TTITLE10=Downhill Drag
TTITLE11=Lover's Leap
TTITLE12=Liberty
TTITLE13=Beaumont Rag
TTITLE14=Night Train
TTITLE15=You Gotta Stop Your Runnin' Around [vocal: Leon McAuliffe]
TTITLE16=Twin Guitar Special
TTITLE17=Catfish
TTITLE18=Eatin' Right Out of Your Hand [vocal: Leon McAuliffe]
TTITLE19=One o'Clock Jump
TTITLE20=Bear Creek Hop
TTITLE21=If It Weren't for a Dream [vocal: Jim Hall]
TTITLE22=Blue Skirt Waltz
TTITLE23=Boot Heel Drag
TTITLE24=Twin Fiddle Rag
TTITLE25=Reckon I Love You [vocal: Leon McAuliffe]
TTITLE26=Take It Away, Leon
EXTD=Recorded during the 1950s.\nCD: Jasmine Records JASMCD 3514 (2001
EXTD=08-14), UPC 604988351422.
EXTT0=
EXTT1=
EXTT2=
EXTT3=
EXTT4=
EXTT5=
EXTT6=
EXTT7=
EXTT8=
EXTT9=
EXTT10=
EXTT11=
EXTT12=
EXTT13=
EXTT14=
EXTT15=
EXTT16=
EXTT17=
EXTT18=
EXTT19=
EXTT20=
EXTT21=
EXTT22=
EXTT23=
EXTT24=
EXTT25=
EXTT26=
PLAYORDER=
